<svg width="30" height="30" viewBox="0 0 30 30" fill="none" xmlns="http://www.w3.org/2000/svg">
<path d="M21.1253 8.48383L12.8807 8.19593C12.6622 8.1921 12.451 8.27423 12.2925 8.42463C12.134 8.57503 12.0409 8.78167 12.0333 9.00005C12.0256 9.21842 12.1041 9.43105 12.2517 9.59214C12.3993 9.75324 12.6043 9.84991 12.8225 9.86133L19.0566 10.079L8.33861 20.0737C8.17697 20.2244 8.08183 20.4332 8.07412 20.6541C8.06641 20.875 8.14675 21.0899 8.29748 21.2515C8.44822 21.4131 8.65698 21.5083 8.87786 21.516C9.09874 21.5237 9.31364 21.4434 9.47528 21.2926L20.1933 11.2979L19.9756 17.532C19.9698 17.6425 19.9861 17.7531 20.0235 17.8572C20.0609 17.9613 20.1186 18.057 20.1934 18.1386C20.2681 18.2202 20.3584 18.286 20.4589 18.3324C20.5594 18.3787 20.6681 18.4045 20.7787 18.4084C20.8893 18.4122 20.9995 18.394 21.103 18.3548C21.2065 18.3156 21.3011 18.2562 21.3814 18.1801C21.4616 18.1039 21.5259 18.0125 21.5705 17.9112C21.6151 17.8099 21.639 17.7008 21.641 17.5902L21.9289 9.34561C21.9366 9.12477 21.8562 8.90993 21.7055 8.74832C21.5548 8.58671 21.3461 8.49158 21.1253 8.48383Z" fill="white"/>
</svg>
