<svg xmlns="http://www.w3.org/2000/svg" version="1.1" xmlns:xlink="http://www.w3.org/1999/xlink" width="50" height="auto" x="0" y="0" viewBox="0 0 64 64" style="enable-background:new 0 0 512 512" xml:space="preserve" class=""><g><path d="M33.112 13.567h-2.084a1 1 0 0 1 0-2h2.084a1 1 0 0 1 0 2z" fill="#583bac" opacity="1" data-original="#000000" class=""></path><path d="M33.051 19.857h-23.9a4.145 4.145 0 0 1 0-8.29h19.011a1 1 0 0 1 0 2H9.151a2.145 2.145 0 0 0 0 4.29h23.9a1 1 0 0 1 0 2zM54.836 36.145h-23.9a1 1 0 0 1 0-2h23.9a2.145 2.145 0 0 0 0-4.29H30.875a1 1 0 0 1 0-2h23.961a4.145 4.145 0 0 1 0 8.29zM33.112 46.159h-2.084a1 1 0 0 1 0-2h2.084a1 1 0 0 1 0 2z" fill="#583bac" opacity="1" data-original="#000000" class=""></path><path d="M33.051 52.449h-23.9a4.145 4.145 0 0 1 0-8.29h19.011a1 1 0 0 1 0 2H9.151a2.145 2.145 0 0 0 0 4.29h23.9a1 1 0 0 1 0 2zM54.836 19.857h-6.673a1 1 0 0 1 0-2h6.673a2.145 2.145 0 0 0 0-4.29h-6.674a1 1 0 0 1 0-2h6.674a4.145 4.145 0 0 1 0 8.29zM54.836 52.449h-6.673a1 1 0 0 1 0-2h6.673a2.145 2.145 0 0 0 0-4.29h-6.674a1 1 0 0 1 0-2h6.674a4.145 4.145 0 0 1 0 8.29z" fill="#583bac" opacity="1" data-original="#000000" class=""></path><path d="M42.659 23.051A7.339 7.339 0 1 1 50 15.712a7.347 7.347 0 0 1-7.341 7.339zm0-12.677A5.339 5.339 0 1 0 48 15.712a5.345 5.345 0 0 0-5.341-5.338zM15.824 36.144H9.151a4.145 4.145 0 0 1 0-8.29h6.673a1 1 0 1 1 0 2H9.151a2.145 2.145 0 0 0 0 4.29h6.673a1 1 0 1 1 0 2z" fill="#583bac" opacity="1" data-original="#000000" class=""></path><path d="M21.328 39.338A7.339 7.339 0 1 1 28.667 32a7.347 7.347 0 0 1-7.339 7.338zm0-12.677A5.339 5.339 0 1 0 26.667 32a5.345 5.345 0 0 0-5.339-5.339zM42.659 50.256a1.952 1.952 0 1 1 1.952-1.956 1.955 1.955 0 0 1-1.952 1.956zm-.048-1.956a.049.049 0 0 0 .048.048z" fill="#583bac" opacity="1" data-original="#000000" class=""></path><path d="M21.328 33.927a1.952 1.952 0 1 1 1.952-1.952 1.954 1.954 0 0 1-1.952 1.952zm-.048-1.952a.048.048 0 0 0 .048.048zM42.659 17.665a1.953 1.953 0 1 1 1.952-1.953 1.955 1.955 0 0 1-1.952 1.953zm-.048-1.953a.049.049 0 0 0 .048.048zM42.659 55.643A7.339 7.339 0 1 1 50 48.3a7.347 7.347 0 0 1-7.341 7.343zm0-12.678A5.339 5.339 0 1 0 48 48.3a5.345 5.345 0 0 0-5.341-5.335z" fill="#583bac" opacity="1" data-original="#000000" class=""></path></g></svg>