<svg width="50" height="auto" viewBox="0 0 50 47" fill="#583bac" xmlns="http://www.w3.org/2000/svg">
<path fill-rule="evenodd" clip-rule="evenodd" d="M49.0196 0H0.980371C0.438965 0 0 0.438965 0 0.980469V45.0981C0 45.6395 0.438965 46.0785 0.980371 46.0785H49.0196C49.561 46.0785 50 45.6395 50 45.0981V0.980469C50 0.438965 49.561 0 49.0196 0ZM13.6029 1.96084H23.2843V6.12754H13.6029V1.96084ZM48.0392 44.1177H1.96074V1.96084H11.6421V7.10791C11.6421 7.64932 12.0811 8.08828 12.6225 8.08828H48.0392V44.1177ZM48.0393 6.12754H25.2451V1.96084H48.0393V6.12754ZM45.7107 5.02451C46.2522 5.02451 46.6911 4.58558 46.6911 4.04414C46.6911 3.5027 46.2522 3.06377 45.7107 3.06377C45.1693 3.06377 44.7304 3.5027 44.7304 4.04414C44.7304 4.58558 45.1693 5.02451 45.7107 5.02451ZM43.3826 4.04434C43.3826 4.58578 42.9437 5.02471 42.4022 5.02471C41.8608 5.02471 41.4219 4.58578 41.4219 4.04434C41.4219 3.50289 41.8608 3.06396 42.4022 3.06396C42.9437 3.06396 43.3826 3.50289 43.3826 4.04434ZM39.5819 5.02471C40.1234 5.02471 40.5623 4.58578 40.5623 4.04434C40.5623 3.50289 40.1234 3.06396 39.5819 3.06396C39.0405 3.06396 38.6016 3.50289 38.6016 4.04434C38.6016 4.58578 39.0405 5.02471 39.5819 5.02471ZM3.55469 3.06396H10.0498V5.02471H3.55469V3.06396ZM17.0336 3.06396H15.1953V5.02471H17.0336V3.06396ZM18.2578 3.06396H22.0568V5.02471H18.2578V3.06396ZM9.07022 29.0439C8.52881 29.0439 8.08984 29.4829 8.08984 30.0243V34.9263C8.08984 35.4677 8.52881 35.9066 9.07022 35.9066H35.0506H40.9329C41.4743 35.9066 41.9133 35.4677 41.9133 34.9263V30.0243C41.9133 29.4829 41.4743 29.0439 40.9329 29.0439H35.0506H9.07022ZM34.0702 33.9459H10.0506V31.0047H34.0702V33.9459ZM36.031 31.0048H39.9525V33.946H36.031V31.0048ZM10.4458 14.527C10.9687 14.3872 11.5063 14.6971 11.6465 15.2202L12.5336 18.531L13.3678 17.3252C13.676 16.8797 14.2868 16.7686 14.7319 17.0767C14.8338 17.1473 14.9174 17.2343 14.9834 17.331L14.9839 17.3305L15.7905 18.5128L16.6727 15.2199C16.8129 14.697 17.3505 14.3869 17.8735 14.5267C18.3964 14.6669 18.707 15.2044 18.5667 15.7275L17.165 20.9592C17.1323 21.2303 16.9881 21.4864 16.7449 21.6524C16.5759 21.7677 16.3836 21.823 16.1933 21.823C15.8802 21.823 15.5724 21.6733 15.3826 21.3949L14.1683 19.6147L12.9331 21.4002C12.7427 21.6753 12.4369 21.8229 12.1259 21.8229C11.9334 21.8229 11.7391 21.7665 11.5689 21.6487C11.329 21.4827 11.1871 21.2288 11.1544 20.9603L9.75239 15.7276C9.61226 15.2045 9.92271 14.667 10.4458 14.527ZM21.9946 20.9602C22.0273 21.2285 22.1691 21.4824 22.409 21.6486C22.5792 21.7663 22.7735 21.8227 22.9659 21.8227C23.2768 21.8227 23.5827 21.6751 23.773 21.4L25.0083 19.6145L26.2224 21.3947C26.4122 21.6731 26.72 21.8228 27.0331 21.8228C27.2234 21.8228 27.4157 21.7675 27.5847 21.6522C27.8279 21.4863 27.9721 21.2301 28.0048 20.9592L29.4067 15.7275C29.547 15.2044 29.2364 14.6668 28.7135 14.5267C28.1905 14.3869 27.653 14.697 27.5127 15.2199L26.6304 18.5128L25.824 17.3305L25.8234 17.331C25.7575 17.2343 25.6739 17.1473 25.572 17.0767C25.1267 16.7686 24.516 16.8797 24.2079 17.3252L23.3736 18.531L22.4863 15.2199C22.346 14.6969 21.8083 14.3869 21.2855 14.5267C20.7625 14.6669 20.452 15.2044 20.5923 15.7275L21.9946 20.9602ZM33.2523 21.6487C33.0124 21.4827 32.8705 21.2287 32.8379 20.9603L31.436 15.7276C31.2958 15.2045 31.6062 14.667 32.1293 14.5268C32.6521 14.387 33.1897 14.6969 33.3301 15.22L34.2172 18.531L35.0514 17.3252C35.3595 16.8797 35.9702 16.7686 36.4154 17.0767C36.5174 17.1473 36.601 17.2343 36.6669 17.331L36.6675 17.3305L37.4739 18.5128L38.3561 15.2199C38.4965 14.697 39.0343 14.3869 39.5569 14.5267C40.0799 14.6669 40.3904 15.2044 40.2502 15.7275L38.8484 20.9592C38.8157 21.2303 38.6716 21.4864 38.4283 21.6524C38.2594 21.7677 38.0671 21.823 37.8768 21.823C37.5637 21.823 37.2559 21.6733 37.066 21.3949L35.8517 19.6147L34.6165 21.4002C34.4262 21.6753 34.1203 21.8229 33.8094 21.8229C33.6169 21.8229 33.4226 21.7665 33.2523 21.6487Z" fill="#583bac"/>
</svg>
