<svg width="20" height="21" viewBox="0 0 20 21" fill="none" xmlns="http://www.w3.org/2000/svg">
<path d="M18.2611 6.01667C18.1765 5.81304 18.0147 5.65123 17.8111 5.56667C17.7109 5.52397 17.6033 5.50132 17.4944 5.5H13.3277C13.1067 5.5 12.8948 5.5878 12.7385 5.74408C12.5822 5.90036 12.4944 6.11232 12.4944 6.33333C12.4944 6.55435 12.5822 6.76631 12.7385 6.92259C12.8948 7.07887 13.1067 7.16667 13.3277 7.16667H15.4861L10.8277 11.825L8.08608 9.075C8.00861 8.99689 7.91645 8.9349 7.8149 8.89259C7.71335 8.85028 7.60443 8.8285 7.49442 8.8285C7.38441 8.8285 7.27548 8.85028 7.17393 8.89259C7.07239 8.9349 6.98022 8.99689 6.90275 9.075L1.90275 14.075C1.82464 14.1525 1.76265 14.2446 1.72034 14.3462C1.67803 14.4477 1.65625 14.5567 1.65625 14.6667C1.65625 14.7767 1.67803 14.8856 1.72034 14.9871C1.76265 15.0887 1.82464 15.1809 1.90275 15.2583C1.98022 15.3364 2.07239 15.3984 2.17393 15.4407C2.27548 15.4831 2.38441 15.5048 2.49442 15.5048C2.60443 15.5048 2.71335 15.4831 2.8149 15.4407C2.91645 15.3984 3.00861 15.3364 3.08608 15.2583L7.49442 10.8417L10.2361 13.5917C10.3136 13.6698 10.4057 13.7318 10.5073 13.7741C10.6088 13.8164 10.7177 13.8382 10.8277 13.8382C10.9378 13.8382 11.0467 13.8164 11.1482 13.7741C11.2498 13.7318 11.3419 13.6698 11.4194 13.5917L16.6611 8.34167V10.5C16.6611 10.721 16.7489 10.933 16.9052 11.0893C17.0614 11.2455 17.2734 11.3333 17.4944 11.3333C17.7154 11.3333 17.9274 11.2455 18.0837 11.0893C18.24 10.933 18.3277 10.721 18.3277 10.5V6.33333C18.3264 6.22444 18.3038 6.11685 18.2611 6.01667Z" fill="white"/>
</svg>
