<svg width="16" height="16" viewBox="0 0 16 16" fill="none" xmlns="http://www.w3.org/2000/svg">
<path d="M14.4009 14.3995V9.71146C14.4009 7.40746 13.9049 5.64746 11.2169 5.64746C9.92091 5.64746 9.05691 6.35146 8.70491 7.02346H8.67291V5.85546H6.12891V14.3995H8.78491V10.1595C8.78491 9.03946 8.99291 7.96746 10.3689 7.96746C11.7289 7.96746 11.7449 9.23146 11.7449 10.2235V14.3835H14.4009V14.3995Z" fill="#091E42"/>
<path d="M1.80859 5.85547H4.46459V14.3995H1.80859V5.85547Z" fill="#091E42"/>
<path d="M3.13756 1.59961C2.28956 1.59961 1.60156 2.28761 1.60156 3.13561C1.60156 3.98361 2.28956 4.68761 3.13756 4.68761C3.98556 4.68761 4.67356 3.98361 4.67356 3.13561C4.67356 2.28761 3.98556 1.59961 3.13756 1.59961Z" fill="#091E42"/>
</svg>
