<svg width="16" height="17" viewBox="0 0 16 17" fill="none" xmlns="http://www.w3.org/2000/svg">
<path d="M14.4009 14.4937V9.8057C14.4009 7.5017 13.9049 5.7417 11.2169 5.7417C9.92091 5.7417 9.05691 6.4457 8.70491 7.1177H8.67291V5.9497H6.12891V14.4937H8.78491V10.2537C8.78491 9.1337 8.99291 8.0617 10.3689 8.0617C11.7289 8.0617 11.7449 9.3257 11.7449 10.3177V14.4777H14.4009V14.4937Z" fill="#F8F6F1"/>
<path d="M1.80859 5.94971H4.46459V14.4937H1.80859V5.94971Z" fill="#F8F6F1"/>
<path d="M3.13756 1.69385C2.28956 1.69385 1.60156 2.38185 1.60156 3.22985C1.60156 4.07785 2.28956 4.78185 3.13756 4.78185C3.98556 4.78185 4.67356 4.07785 4.67356 3.22985C4.67356 2.38185 3.98556 1.69385 3.13756 1.69385Z" fill="#F8F6F1"/>
</svg>
