<svg width="14" height="14" viewBox="0 0 14 14" fill="none" xmlns="http://www.w3.org/2000/svg">
<path d="M13.4163 2.54948C13.3899 2.84831 13.2726 3.0387 13.0557 3.22027L2.21203 12.2985C1.77829 12.6616 1.18063 12.6087 0.817498 12.1749C0.454369 11.7412 0.507333 11.1435 0.94108 10.7804L11.7848 1.70215C12.2185 1.33902 12.8162 1.39198 13.1793 1.82573C13.3609 2.0426 13.4428 2.25065 13.4163 2.54948Z" fill="white"/>
<path d="M13.4179 2.5491L12.6235 11.514C12.5705 12.1116 12.1367 12.4748 11.5391 12.4218C10.9414 12.3688 10.5783 11.9351 10.6313 11.3374L11.3374 3.36865L3.36868 2.66247C2.77102 2.6095 2.40789 2.17576 2.46085 1.5781C2.51382 0.980441 2.94756 0.617312 3.54522 0.670276L12.5101 1.46473C13.1077 1.5177 13.4709 1.95144 13.4179 2.5491Z" fill="white"/>
</svg>
