<svg width="50" height="auto" viewBox="0 0 47 47" fill="none" xmlns="http://www.w3.org/2000/svg">
<path fill-rule="evenodd" clip-rule="evenodd" d="M46.6003 9.66406C46.5276 9.57444 46.436 9.50204 46.332 9.45206C46.228 9.40208 46.1142 9.37576 45.9988 9.375H45.3113V0.78125C45.3113 0.57405 45.229 0.375336 45.0824 0.228823C44.9359 0.08231 44.7372 0 44.53 0H28.905C28.6978 0 28.4991 0.08231 28.3526 0.228823C28.2061 0.375336 28.1238 0.57405 28.1238 0.78125V9.375H27.4363C27.3209 9.37576 27.2071 9.40208 27.1031 9.45206C26.999 9.50204 26.9074 9.57444 26.8347 9.66406C26.7607 9.75451 26.7082 9.86057 26.6812 9.97423C26.6541 10.0879 26.6532 10.2062 26.6784 10.3203L27.3581 13.4453C27.3957 13.6203 27.4923 13.7771 27.6317 13.8895C27.771 14.0018 27.9447 14.0629 28.1238 14.0625H45.3113C45.4903 14.0629 45.664 14.0018 45.8034 13.8895C45.9427 13.7771 46.0393 13.6203 46.0769 13.4453L46.7566 10.3203C46.7818 10.2062 46.7809 10.0879 46.7538 9.97423C46.7268 9.86057 46.6743 9.75451 46.6003 9.66406ZM29.6863 1.5625H43.7488V9.375H38.28C38.0728 9.375 37.8741 9.45731 37.7276 9.60382C37.5811 9.75034 37.4988 9.94905 37.4988 10.1562H35.9363C35.9363 9.94905 35.854 9.75034 35.7074 9.60382C35.5609 9.45731 35.3622 9.375 35.155 9.375H29.6863V1.5625ZM44.6863 12.5H28.7488L28.4128 10.9375H34.3738C34.3738 11.1447 34.4561 11.3434 34.6026 11.4899C34.7491 11.6364 34.9478 11.7188 35.155 11.7188H38.28C38.4872 11.7188 38.6859 11.6364 38.8324 11.4899C38.979 11.3434 39.0613 11.1447 39.0613 10.9375H45.0222L44.6863 12.5ZM16.499 31.9385C16.0598 31.4994 15.4648 31.2519 14.8438 31.25H2.34375C1.72272 31.2519 1.12765 31.4994 0.688517 31.9385C0.24938 32.3777 0.00185476 32.9727 0 33.5938V41.4062C0.00185476 42.0273 0.24938 42.6223 0.688517 43.0615C1.12765 43.5006 1.72272 43.7481 2.34375 43.75H5.30469L4.78125 45.9062C4.75091 46.0215 4.74782 46.1422 4.77223 46.2588C4.79664 46.3754 4.84787 46.4847 4.92188 46.5781C4.99545 46.6712 5.08926 46.7464 5.1962 46.7978C5.30314 46.8492 5.4204 46.8756 5.53906 46.875H11.6484C11.7671 46.8756 11.8844 46.8492 11.9913 46.7978C12.0982 46.7464 12.1921 46.6712 12.2656 46.5781C12.3396 46.4847 12.3909 46.3754 12.4153 46.2588C12.4397 46.1422 12.4366 46.0215 12.4062 45.9062L11.8828 43.75H14.8438C15.4648 43.7481 16.0598 43.5006 16.499 43.0615C16.9381 42.6223 17.1856 42.0273 17.1875 41.4062V33.5938C17.1856 32.9727 16.9381 32.3777 16.499 31.9385ZM6.53125 45.3125L6.91406 43.75H10.2734L10.6562 45.3125H6.53125ZM15.625 41.4062C15.625 41.6134 15.5427 41.8122 15.3962 41.9587C15.2497 42.1052 15.051 42.1875 14.8438 42.1875H2.34375C2.13655 42.1875 1.93784 42.1052 1.79132 41.9587C1.64481 41.8122 1.5625 41.6134 1.5625 41.4062V40.625H15.625V41.4062ZM15.625 33.5938V39.0625H1.5625V33.5938C1.5625 33.3866 1.64481 33.1878 1.79132 33.0413C1.93784 32.8948 2.13655 32.8125 2.34375 32.8125H14.8438C15.051 32.8125 15.2497 32.8948 15.3962 33.0413C15.5427 33.1878 15.625 33.3866 15.625 33.5938ZM38.2812 29.6875H44.5312C45.1523 29.6894 45.7473 29.9369 46.1865 30.376C46.6256 30.8152 46.8731 31.4102 46.875 32.0312V44.5312C46.8731 45.1523 46.6256 45.7473 46.1865 46.1865C45.7473 46.6256 45.1523 46.8731 44.5312 46.875H38.2812C37.6602 46.8731 37.0652 46.6256 36.626 46.1865C36.1869 45.7473 35.9394 45.1523 35.9375 44.5312V32.0312C35.9394 31.4102 36.1869 30.8152 36.626 30.376C37.0652 29.9369 37.6602 29.6894 38.2812 29.6875ZM42.7399 31.8024C42.8864 31.6559 42.9688 31.4572 42.9688 31.25H39.8438C39.8438 31.4572 39.9261 31.6559 40.0726 31.8024C40.2191 31.9489 40.4178 32.0312 40.625 32.0312H42.1875C42.3947 32.0312 42.5934 31.9489 42.7399 31.8024ZM45.0837 45.0837C45.2302 44.9372 45.3125 44.7384 45.3125 44.5312V32.0312C45.3125 31.824 45.2302 31.6253 45.0837 31.4788C44.9372 31.3323 44.7384 31.25 44.5312 31.25C44.5294 31.871 44.2819 32.4661 43.8427 32.9052C43.4036 33.3444 42.8085 33.5919 42.1875 33.5938H40.625C40.004 33.5919 39.4089 33.3444 38.9698 32.9052C38.5306 32.4661 38.2831 31.871 38.2812 31.25C38.0741 31.25 37.8753 31.3323 37.7288 31.4788C37.5823 31.6253 37.5 31.824 37.5 32.0312V44.5312C37.5 44.7384 37.5823 44.9372 37.7288 45.0837C37.8753 45.2302 38.0741 45.3125 38.2812 45.3125H44.5312C44.7384 45.3125 44.9372 45.2302 45.0837 45.0837ZM11.7188 0H2.34375C1.72272 0.00185476 1.12765 0.24938 0.688517 0.688517C0.24938 1.12765 0.00185476 1.72272 0 2.34375V14.8438C0.00185476 15.4648 0.24938 16.0598 0.688517 16.499C1.12765 16.9381 1.72272 17.1856 2.34375 17.1875H11.7188C12.3398 17.1856 12.9348 16.9381 13.374 16.499C13.8131 16.0598 14.0606 15.4648 14.0625 14.8438V2.34375C14.0606 1.72272 13.8131 1.12765 13.374 0.688517C12.9348 0.24938 12.3398 0.00185476 11.7188 0ZM12.5 14.8438C12.5 15.051 12.4177 15.2497 12.2712 15.3962C12.1247 15.5427 11.926 15.625 11.7188 15.625H2.34375C2.13655 15.625 1.93784 15.5427 1.79132 15.3962C1.64481 15.2497 1.5625 15.051 1.5625 14.8438V2.34375C1.5625 2.13655 1.64481 1.93784 1.79132 1.79132C1.93784 1.64481 2.13655 1.5625 2.34375 1.5625H11.7188C11.926 1.5625 12.1247 1.64481 12.2712 1.79132C12.4177 1.93784 12.5 2.13655 12.5 2.34375V14.8438ZM6.25 12.5H7.8125V14.0625H6.25V12.5ZM31.3438 21.1719L29.4688 20.9375L30.6328 19.4453C30.7497 19.2947 30.8071 19.1065 30.7942 18.9163C30.7812 18.7261 30.6987 18.5474 30.5625 18.4141L28.4609 16.3125C28.3271 16.1772 28.1485 16.0954 27.9586 16.0824C27.7687 16.0695 27.5806 16.1263 27.4297 16.2422L25.9375 17.4062L25.7031 15.5312C25.678 15.3416 25.585 15.1674 25.4414 15.041C25.2978 14.9146 25.1132 14.8445 24.9219 14.8438H21.9531C21.7618 14.8445 21.5772 14.9146 21.4336 15.041C21.29 15.1674 21.197 15.3416 21.1719 15.5312L20.9375 17.4062L19.4453 16.2422C19.2944 16.1263 19.1063 16.0695 18.9164 16.0824C18.7265 16.0954 18.5479 16.1772 18.4141 16.3125L16.3125 18.4141C16.1763 18.5474 16.0938 18.7261 16.0808 18.9163C16.0679 19.1065 16.1253 19.2947 16.2422 19.4453L17.4062 20.9375L15.5312 21.1719C15.3416 21.197 15.1674 21.29 15.041 21.4336C14.9146 21.5772 14.8445 21.7618 14.8438 21.9531V24.9219C14.8445 25.1132 14.9146 25.2978 15.041 25.4414C15.1674 25.585 15.3416 25.678 15.5312 25.7031L17.4062 25.9375L16.2422 27.4297C16.1253 27.5803 16.0679 27.7685 16.0808 27.9587C16.0938 28.1489 16.1763 28.3276 16.3125 28.4609L18.4141 30.5625C18.5479 30.6978 18.7265 30.7796 18.9164 30.7926C19.1063 30.8055 19.2944 30.7487 19.4453 30.6328L20.9375 29.4688L21.1719 31.3438C21.197 31.5334 21.29 31.7076 21.4336 31.834C21.5772 31.9604 21.7618 32.0304 21.9531 32.0312H24.9219C25.1132 32.0304 25.2978 31.9604 25.4414 31.834C25.585 31.7076 25.678 31.5334 25.7031 31.3438L25.9375 29.4688L27.4297 30.6328C27.5806 30.7487 27.7687 30.8055 27.9586 30.7926C28.1485 30.7796 28.3271 30.6978 28.4609 30.5625L30.5625 28.4609C30.6987 28.3276 30.7812 28.1489 30.7942 27.9587C30.8071 27.7685 30.7497 27.5803 30.6328 27.4297L29.4688 25.9375L31.3438 25.7031C31.5334 25.678 31.7076 25.585 31.834 25.4414C31.9604 25.2978 32.0304 25.1132 32.0312 24.9219V21.9531C32.0304 21.7618 31.9604 21.5772 31.834 21.4336C31.7076 21.29 31.5334 21.197 31.3438 21.1719ZM30.4688 24.2344L28.6172 24.4688C28.4716 24.4858 28.334 24.5442 28.2205 24.6369C28.107 24.7297 28.0223 24.8529 27.9766 24.9922C27.9062 25.1797 27.8281 25.3672 27.7422 25.5469C27.6766 25.6775 27.6499 25.8242 27.6651 25.9696C27.6803 26.115 27.7369 26.253 27.8281 26.3672L28.9766 27.8438L27.8438 28.9766L26.3672 27.8281C26.253 27.7369 26.115 27.6803 25.9696 27.6651C25.8242 27.6499 25.6775 27.6766 25.5469 27.7422C25.3634 27.8297 25.1757 27.9079 24.9844 27.9766C24.8468 28.024 24.7255 28.1092 24.6343 28.2226C24.543 28.3359 24.4857 28.4727 24.4688 28.6172L24.2344 30.4688H22.6406L22.4062 28.6172C22.3893 28.4727 22.332 28.3359 22.2407 28.2226C22.1495 28.1092 22.0282 28.024 21.8906 27.9766C21.6993 27.9079 21.5116 27.8297 21.3281 27.7422C21.1975 27.6766 21.0508 27.6499 20.9054 27.6651C20.76 27.6803 20.622 27.7369 20.5078 27.8281L19.0312 28.9766L17.8984 27.8438L19.0469 26.3672C19.1381 26.253 19.1947 26.115 19.2099 25.9696C19.2251 25.8242 19.1984 25.6775 19.1328 25.5469C19.0469 25.3672 18.9688 25.1797 18.8984 24.9922C18.8527 24.8529 18.768 24.7297 18.6545 24.6369C18.541 24.5442 18.4034 24.4858 18.2578 24.4688L16.4062 24.2344V22.6406L18.2578 22.4062C18.4034 22.3892 18.541 22.3308 18.6545 22.2381C18.768 22.1453 18.8527 22.0221 18.8984 21.8828C18.9688 21.6953 19.0469 21.5078 19.1328 21.3281C19.1984 21.1975 19.2251 21.0508 19.2099 20.9054C19.1947 20.76 19.1381 20.622 19.0469 20.5078L17.8984 19.0312L19.0312 17.8984L20.5078 19.0469C20.622 19.1381 20.76 19.1947 20.9054 19.2099C21.0508 19.2251 21.1975 19.1984 21.3281 19.1328C21.5078 19.0469 21.6953 18.9688 21.8828 18.8984C22.0221 18.8527 22.1453 18.768 22.2381 18.6545C22.3308 18.541 22.3892 18.4034 22.4062 18.2578L22.6406 16.4062H24.2344L24.4688 18.2578C24.4858 18.4034 24.5442 18.541 24.6369 18.6545C24.7297 18.768 24.8529 18.8527 24.9922 18.8984C25.1797 18.9688 25.3672 19.0469 25.5469 19.1328C25.6775 19.1984 25.8242 19.2251 25.9696 19.2099C26.115 19.1947 26.253 19.1381 26.3672 19.0469L27.8438 17.8984L28.9766 19.0312L27.8281 20.5078C27.7369 20.622 27.6803 20.76 27.6651 20.9054C27.6499 21.0508 27.6766 21.1975 27.7422 21.3281C27.8281 21.5078 27.9062 21.6953 27.9766 21.8828C28.0223 22.0221 28.107 22.1453 28.2205 22.2381C28.334 22.3308 28.4716 22.3892 28.6172 22.4062L30.4688 22.6406V24.2344ZM26.6854 21.2673C27.1147 21.9097 27.3438 22.6649 27.3438 23.4375C27.3425 24.4731 26.9306 25.466 26.1983 26.1983C25.466 26.9306 24.4731 27.3425 23.4375 27.3438C22.6649 27.3438 21.9097 27.1147 21.2673 26.6854C20.6249 26.2562 20.1243 25.6461 19.8286 24.9324C19.5329 24.2186 19.4556 23.4332 19.6063 22.6754C19.757 21.9177 20.1291 21.2217 20.6754 20.6754C21.2217 20.1291 21.9177 19.757 22.6754 19.6063C23.4332 19.4556 24.2186 19.5329 24.9324 19.8286C25.6461 20.1243 26.2562 20.6249 26.6854 21.2673ZM22.1354 25.3863C22.5208 25.6438 22.9739 25.7812 23.4375 25.7812C24.0591 25.7812 24.6552 25.5343 25.0948 25.0948C25.5343 24.6552 25.7812 24.0591 25.7812 23.4375C25.7812 22.9739 25.6438 22.5208 25.3863 22.1354C25.1287 21.75 24.7627 21.4496 24.3344 21.2722C23.9061 21.0948 23.4349 21.0484 22.9803 21.1388C22.5256 21.2292 22.108 21.4524 21.7802 21.7802C21.4524 22.108 21.2292 22.5256 21.1388 22.9803C21.0484 23.4349 21.0948 23.9061 21.2722 24.3344C21.4496 24.7627 21.75 25.1287 22.1354 25.3863ZM35.9375 21.875H33.5938V23.4375H36.7188C36.9259 23.4375 37.1247 23.3552 37.2712 23.2087C37.4177 23.0622 37.5 22.8635 37.5 22.6562V15.625H35.9375V21.875ZM7.03125 29.6875V23.4375C7.03125 23.2303 7.11356 23.0316 7.26007 22.8851C7.40659 22.7386 7.6053 22.6562 7.8125 22.6562H13.2812V24.2188H8.59375V29.6875H7.03125ZM22.6562 13.2812H24.2188V8.59375C24.2188 8.38655 24.1364 8.18784 23.9899 8.04132C23.8434 7.89481 23.6447 7.8125 23.4375 7.8125H15.625V9.375H22.6562V13.2812ZM22.6562 39.8438V33.5938H24.2188V39.0625H34.375V40.625H23.4375C23.2303 40.625 23.0316 40.5427 22.8851 40.3962C22.7386 40.2497 22.6562 40.0509 22.6562 39.8438Z" fill="#583bac"/>
</svg>
