<svg width="14" height="14" viewBox="0 0 14 14" fill="none" xmlns="http://www.w3.org/2000/svg">
<path d="M13.4163 2.64274C13.3899 2.94157 13.2726 3.13196 13.0557 3.31353L2.21203 12.3918C1.77829 12.7549 1.18063 12.7019 0.817498 12.2682C0.454369 11.8344 0.507333 11.2368 0.94108 10.8736L11.7848 1.79541C12.2185 1.43228 12.8162 1.48524 13.1793 1.91899C13.3609 2.13586 13.4428 2.34391 13.4163 2.64274Z" fill="#222B40"/>
<path d="M13.4179 2.64285L12.6235 11.6077C12.5705 12.2054 12.1367 12.5685 11.5391 12.5155C10.9414 12.4626 10.5783 12.0288 10.6313 11.4312L11.3374 3.4624L3.36868 2.75622C2.77102 2.70325 2.40789 2.26951 2.46085 1.67185C2.51382 1.07419 2.94756 0.711062 3.54522 0.764026L12.5101 1.55848C13.1077 1.61145 13.4709 2.04519 13.4179 2.64285Z" fill="#222B40"/>
</svg>
