<svg width="32" height="50" viewBox="0 0 32 50" fill="none" xmlns="http://www.w3.org/2000/svg">
<path fill-rule="evenodd" clip-rule="evenodd" d="M17.5007 50H14.1673C6.34649 49.9913 0.00869181 43.6534 0 35.8326V17.4985C0.0124029 10.535 5.07651 4.60979 11.953 3.51286L13.5656 1.19019C14.0804 0.444943 14.9285 0 15.8344 0C16.7403 0 17.5884 0.444943 18.1034 1.19029L19.7151 3.51286C26.5916 4.60979 31.6557 10.535 31.6681 17.4985V35.8326C31.6593 43.6534 25.3215 49.9913 17.5007 50ZM30.0014 21.6654V17.4985C29.9911 11.994 26.3896 7.14086 21.1242 5.53629L21.1726 5.60544C21.7654 6.46856 21.8296 7.58952 21.3393 8.51475C20.8634 9.42603 19.9207 9.99764 18.8925 9.99812H18.3342V10.8315C18.3342 11.752 17.5879 12.4982 16.6674 12.4982V14.2833C18.1346 14.6622 19.1618 15.9831 19.1675 17.4985V21.6654H30.0014ZM17.5008 17.4985C17.5008 16.5779 16.7546 15.8317 15.834 15.8317C14.9135 15.8317 14.1673 16.5779 14.1673 17.4985V22.4987C14.1673 23.4193 14.9135 24.1655 15.834 24.1655C16.7546 24.1655 17.5008 23.4193 17.5008 22.4987V17.4985ZM15.8344 1.6659C15.4753 1.6659 15.1392 1.84266 14.9357 2.13858L11.868 6.55636C11.6253 6.90648 11.6002 7.36343 11.803 7.73806C11.9886 8.10409 12.3651 8.33379 12.7755 8.33144H14.1673C14.6275 8.33144 15.0006 8.70451 15.0006 9.16479V10.8315H16.6674V9.16469C16.6674 8.70451 17.0404 8.33135 17.5007 8.33135H18.8925C19.3023 8.33418 19.6787 8.10556 19.865 7.7405C20.0681 7.36451 20.042 6.90609 19.7975 6.55548L16.7332 2.13858C16.5297 1.84266 16.1935 1.6659 15.8344 1.6659ZM10.4971 5.60954L10.548 5.5362C5.28111 7.13959 1.67781 11.9929 1.66668 17.4984V21.6653H12.5005V17.4984C12.5062 15.9829 13.5333 14.662 15.0006 14.2832V12.4981C14.0801 12.4981 13.3338 11.7519 13.3338 10.8314V9.99803H12.7755C11.7479 9.99695 10.806 9.42544 10.3304 8.51466C9.84118 7.59069 9.90544 6.47149 10.4971 5.60954ZM12.6189 23.3321H1.66678V35.8326C1.67459 42.7332 7.26675 48.3254 14.1674 48.3332H17.5008C24.4014 48.3254 29.9936 42.7332 30.0014 35.8326V23.3321H19.0492C18.675 24.8022 17.3512 25.8314 15.834 25.8314C14.3169 25.8314 12.9931 24.8023 12.6189 23.3321ZM15.8344 39.9973C14.9285 39.9973 14.0804 39.5524 13.5655 38.8071L10.5003 34.3918C9.90627 33.5295 9.84044 32.4084 10.3295 31.4825C10.8054 30.5712 11.7481 29.9996 12.7763 29.9991H13.3346V29.1658C13.3346 28.2453 14.0809 27.499 15.0014 27.499H16.6682C17.5888 27.499 18.335 28.2453 18.335 29.1658V29.9991H18.8933C19.9214 30.0007 20.8635 30.5733 21.3384 31.4851C21.8276 32.409 21.7634 33.5282 21.1717 34.3902L18.1032 38.8071C17.5884 39.5523 16.7403 39.9973 15.8344 39.9973ZM12.7762 31.6658C12.3659 31.6635 11.9894 31.8932 11.8037 32.2592C11.602 32.6344 11.6281 33.0912 11.8712 33.4409L14.9355 37.8578C15.1472 38.1414 15.4804 38.3084 15.8343 38.3084C16.1882 38.3084 16.5213 38.1414 16.733 37.8578L19.8007 33.4409C20.0435 33.0908 20.0686 32.6338 19.8657 32.2592C19.6802 31.8932 19.3036 31.6635 18.8932 31.6658H17.5014C17.0412 31.6658 16.6681 31.2928 16.6681 30.8325V29.1657H15.0013V30.8325C15.0013 31.2927 14.6283 31.6658 14.168 31.6658H12.7762Z" fill="#583bac"/>
</svg>
