<svg xmlns="http://www.w3.org/2000/svg" version="1.1" xmlns:xlink="http://www.w3.org/1999/xlink" width="50" height="auto" x="0" y="0" viewBox="0 0 32 32" style="enable-background:new 0 0 512 512" xml:space="preserve" class=""><g><path d="M9.499 12.001a1 1 0 1 0 0-2h-2c-1.103 0-2 .897-2 2v1c0 1.103.897 2 2 2h1v1h-2a1 1 0 1 0 0 2h2c1.103 0 2-.897 2-2v-1c0-1.103-.897-2-2-2h-1v-1zM15.499 12.001a1 1 0 1 0 0-2h-2c-1.103 0-2 .897-2 2v4c0 1.103.897 2 2 2h2a1 1 0 1 0 0-2h-2v-1h1a1 1 0 1 0 0-2h-1v-1zM22.499 16.001v-4c0-1.103-.897-2-2-2h-1c-1.103 0-2 .897-2 2v4c0 1.103.897 2 2 2h1c1.103 0 2-.897 2-2zm-2.003 0h-.997v-4h1z" fill="#583bac" opacity="1" data-original="#000000" class=""></path><path d="m30.246 26.835-5.51-5.519a12.919 12.919 0 0 0 2.262-7.315c0-7.168-5.832-13-13-13s-13 5.832-13 13 5.832 13 13 13c2.716 0 5.238-.84 7.326-2.27l5.507 5.517a2.536 2.536 0 0 0 1.73.75l.068.001a2.36 2.36 0 0 0 1.686-.691A2.341 2.341 0 0 0 31 28.552a2.54 2.54 0 0 0-.754-1.717zM2.999 14.001c0-6.065 4.935-11 11-11s11 4.935 11 11-4.935 11-11 11-11-4.935-11-11z" fill="#583bac" opacity="1" data-original="#000000" class=""></path></g></svg>