<svg width="46" height="46" viewBox="0 0 46 46" fill="none" xmlns="http://www.w3.org/2000/svg">
<g clip-path="url(#clip0_62_6345)">
<path d="M32.3753 12.1558L19.1825 11.7423C18.8329 11.7375 18.4954 11.8701 18.2426 12.1116C17.9899 12.3532 17.8421 12.6843 17.8312 13.0338C17.8202 13.3832 17.947 13.723 18.1841 13.9799C18.4212 14.2368 18.7497 14.3903 19.0989 14.4073L29.0746 14.7199L11.9832 30.7727C11.7254 31.0148 11.5744 31.3493 11.5633 31.7028C11.5522 32.0562 11.682 32.3996 11.9241 32.6574C12.1662 32.9151 12.5008 33.0662 12.8542 33.0772C13.2077 33.0883 13.5511 32.9585 13.8088 32.7164L30.9002 16.6637L30.5876 26.6393C30.579 26.8162 30.6057 26.9929 30.6661 27.1594C30.7266 27.3258 30.8195 27.4785 30.9396 27.6086C31.0597 27.7387 31.2045 27.8436 31.3655 27.9171C31.5266 27.9906 31.7007 28.0314 31.8776 28.0369C32.0546 28.0425 32.2309 28.0127 32.3962 27.9494C32.5615 27.8861 32.7126 27.7905 32.8406 27.6682C32.9686 27.5458 33.071 27.3992 33.1417 27.2369C33.2124 27.0746 33.2501 26.8999 33.2526 26.7228L33.666 13.53C33.677 13.1766 33.5473 12.8333 33.3052 12.5756C33.0632 12.3179 32.7287 12.1669 32.3753 12.1558Z" fill="#222B40"/>
</g>
<defs>
<clipPath id="clip0_62_6345">
<rect width="32" height="32" fill="white" transform="translate(0 21.9077) rotate(-43.2051)"/>
</clipPath>
</defs>
</svg>
