<svg width="32" height="32" viewBox="0 0 32 32" fill="none" xmlns="http://www.w3.org/2000/svg">
<rect width="32" height="32" rx="16" fill="#091E42"/>
<path d="M13.9808 21.5C13.8526 21.4996 13.7258 21.4734 13.6084 21.4232C13.4909 21.3729 13.3853 21.2996 13.2981 21.2077L8.75348 16.4858C8.58359 16.309 8.49258 16.0735 8.50047 15.8311C8.50837 15.5888 8.61451 15.3594 8.79556 15.1935C8.9766 15.0275 9.21772 14.9387 9.46587 14.9464C9.71401 14.9541 9.94886 15.0577 10.1187 15.2346L13.9714 19.2441L21.8358 10.8415C21.9156 10.7444 22.0149 10.6643 22.1275 10.6061C22.2402 10.5478 22.3638 10.5127 22.4909 10.5029C22.618 10.493 22.7457 10.5086 22.8664 10.5488C22.987 10.5889 23.098 10.6527 23.1925 10.7363C23.287 10.8198 23.363 10.9214 23.4158 11.0347C23.4687 11.1479 23.4973 11.2706 23.4998 11.3951C23.5024 11.5195 23.4788 11.6432 23.4307 11.7584C23.3825 11.8737 23.3107 11.9781 23.2197 12.0653L14.6728 21.1986C14.5864 21.2921 14.4812 21.3671 14.3637 21.419C14.2462 21.4709 14.119 21.4984 13.9901 21.5H13.9808Z" fill="white"/>
</svg>
