<svg width="50" height="auto" viewBox="0 0 50 44" fill="none" xmlns="http://www.w3.org/2000/svg">
<path fill-rule="evenodd" clip-rule="evenodd" d="M42.7915 7.45574C47.2461 11.9723 50 18.1702 50 25C50 31.6775 47.3995 37.9556 42.6777 42.6775C42.5575 42.7975 42.4188 42.8875 42.2708 42.9475C42.1228 43.0075 41.9654 43.0375 41.8082 43.0375C41.4936 43.0375 41.1789 42.9175 40.9389 42.6775L37.0889 38.8275C36.6087 38.3474 36.6087 37.569 37.0889 37.0887C37.569 36.6087 38.3475 36.6087 38.8275 37.0887L41.7843 40.0456C45.232 36.209 47.232 31.3803 47.507 26.2295H43.3256C42.6466 26.2295 42.0961 25.6792 42.0961 25C42.0961 24.3208 42.6466 23.7705 43.3256 23.7705H47.5069C47.2211 18.48 45.1023 13.6693 41.7762 9.96246L38.8275 12.9111C38.5875 13.1511 38.2728 13.2711 37.9582 13.2711C37.6436 13.2711 37.3289 13.1511 37.0889 12.9111C36.6087 12.431 36.6087 11.6526 37.0889 11.1723L40.0375 8.22361C36.3307 4.89754 31.52 2.77869 26.2295 2.49295V6.67426C26.2295 7.35344 25.679 7.90377 25 7.90377C24.321 7.90377 23.7705 7.35344 23.7705 6.67426V2.49295C18.48 2.77869 13.6693 4.89738 9.96246 8.22344L12.911 11.1723C13.3911 11.6525 13.3911 12.4308 12.911 12.9111C12.671 13.1511 12.3562 13.2711 12.0416 13.2711C11.727 13.2711 11.4123 13.1511 11.1723 12.9111L8.22361 9.96246C4.89754 13.6692 2.77885 18.48 2.49295 23.7705H6.6741C7.35312 23.7705 7.90361 24.3208 7.90361 25C7.90361 25.6792 7.35312 26.2295 6.6741 26.2295H2.49262C2.7677 31.3803 4.76787 36.2089 8.21557 40.0454L11.1723 37.0887C11.6523 36.6087 12.4308 36.6087 12.911 37.0887C13.3911 37.5689 13.3911 38.3472 12.911 38.8275L9.12213 42.6166C9.10344 42.6382 9.08492 42.66 9.06443 42.6805C8.82443 42.9207 8.50967 43.0407 8.19492 43.0407C7.88033 43.0407 7.56574 42.9208 7.32574 42.6808L7.32377 42.6789L7.32246 42.6777L7.32049 42.6756C2.59984 37.9538 0 31.6769 0 25C0 18.1702 2.75393 11.9723 7.20836 7.45574C7.24311 7.40935 7.28016 7.36426 7.3223 7.32213C7.36443 7.28016 7.40951 7.24312 7.45574 7.20836C11.9725 2.75393 18.1703 0 25 0C31.8297 0 38.0275 2.75377 42.5441 7.20836C42.5903 7.24295 42.6354 7.28 42.6775 7.32213C42.7197 7.36426 42.7567 7.40951 42.7915 7.45574ZM29.0503 11.5842C29.3027 10.9537 30.0181 10.6475 30.6488 10.9001C31.2791 11.1526 31.5854 11.8683 31.3329 12.4985L27.8075 21.2986C27.8991 21.358 27.9908 21.4175 28.0804 21.4827C28.2472 21.604 28.3983 21.7555 28.5183 21.9211C29.6913 23.5347 29.9018 25.4617 29.0801 27.0747C28.2942 28.6176 26.7309 29.5762 25.0004 29.5762C23.9391 29.5762 22.874 29.2098 21.9204 28.5165C21.7542 28.3957 21.6034 28.2447 21.4834 28.0796C20.3096 26.4648 20.0991 24.5376 20.9208 22.9247C21.7068 21.3817 23.27 20.4232 25.0004 20.4232C25.1662 20.4232 25.3318 20.4353 25.4973 20.453L29.0503 11.5842ZM25.0003 27.117C25.8011 27.117 26.5247 26.673 26.8888 25.9585C27.2783 25.1937 27.1622 24.2748 26.5722 23.4275C26.3408 23.2658 26.1073 23.1419 25.8729 23.0519L25.8728 23.0519C25.8458 23.0432 25.8188 23.0345 25.7919 23.0239C25.7875 23.0221 25.7834 23.0201 25.7792 23.018C25.7753 23.0161 25.7714 23.0142 25.7673 23.0126C25.5119 22.9265 25.2559 22.8822 25.0004 22.8822C24.1995 22.8822 23.4759 23.3262 23.1119 24.0407C22.7222 24.8055 22.8381 25.7242 23.4283 26.5716C23.9463 26.9335 24.475 27.117 25.0003 27.117Z" fill="#583bac"/>
</svg>
