<svg width="40" height="40" viewBox="0 0 40 40" fill="none" xmlns="http://www.w3.org/2000/svg">
<rect width="40" height="40" rx="12" fill="#F8B940"/>
<path d="M19.0489 8.92705C19.3483 8.00574 20.6517 8.00574 20.9511 8.92705L22.9187 14.9828C23.0526 15.3948 23.4365 15.6738 23.8697 15.6738H30.2371C31.2058 15.6738 31.6086 16.9134 30.8249 17.4828L25.6736 21.2254C25.3231 21.4801 25.1764 21.9314 25.3103 22.3435L27.2779 28.3992C27.5773 29.3205 26.5228 30.0866 25.7391 29.5172L20.5878 25.7746C20.2373 25.5199 19.7627 25.5199 19.4122 25.7746L14.2609 29.5172C13.4772 30.0866 12.4227 29.3205 12.7221 28.3992L14.6897 22.3435C14.8236 21.9314 14.6769 21.4801 14.3264 21.2254L9.17511 17.4828C8.39139 16.9134 8.79417 15.6738 9.76289 15.6738H16.1303C16.5635 15.6738 16.9474 15.3948 17.0813 14.9828L19.0489 8.92705Z" fill="#F8F6F1"/>
</svg>
