<svg width="16" height="17" viewBox="0 0 16 17" fill="none" xmlns="http://www.w3.org/2000/svg">
<g clip-path="url(#clip0_850_3971)">
<path d="M16 3.13275C15.405 3.39375 14.771 3.56675 14.11 3.65075C14.79 3.24475 15.309 2.60675 15.553 1.83775C14.919 2.21575 14.219 2.48275 13.473 2.63175C12.871 1.99075 12.013 1.59375 11.077 1.59375C9.261 1.59375 7.799 3.06775 7.799 4.87475C7.799 5.13475 7.821 5.38475 7.875 5.62275C5.148 5.48975 2.735 4.18275 1.114 2.19175C0.831 2.68275 0.665 3.24475 0.665 3.84975C0.665 4.98575 1.25 5.99275 2.122 6.57575C1.595 6.56575 1.078 6.41275 0.64 6.17175C0.64 6.18175 0.64 6.19475 0.64 6.20775C0.64 7.80175 1.777 9.12575 3.268 9.43075C3.001 9.50375 2.71 9.53875 2.408 9.53875C2.198 9.53875 1.986 9.52675 1.787 9.48275C2.212 10.7817 3.418 11.7367 4.852 11.7677C3.736 12.6407 2.319 13.1667 0.785 13.1667C0.516 13.1667 0.258 13.1547 0 13.1217C1.453 14.0588 3.175 14.5938 5.032 14.5938C11.068 14.5938 14.368 9.59375 14.368 5.25975C14.368 5.11475 14.363 4.97475 14.356 4.83575C15.007 4.37375 15.554 3.79675 16 3.13275Z" fill="#F8F6F1"/>
</g>
<defs>
<clipPath id="clip0_850_3971">
<rect width="16" height="16" fill="white" transform="translate(0 0.09375)"/>
</clipPath>
</defs>
</svg>
