<svg width="22" height="22" viewBox="0 0 22 22" fill="none" xmlns="http://www.w3.org/2000/svg">
<path fill-rule="evenodd" clip-rule="evenodd" d="M10.6263 19.3889C15.3214 19.3889 19.1275 15.6754 19.1275 11.0946C19.1275 6.51378 15.3214 2.80029 10.6263 2.80029C5.93114 2.80029 2.125 6.51378 2.125 11.0946C2.125 15.6754 5.93114 19.3889 10.6263 19.3889ZM14.5656 9.75415C14.9806 9.34926 14.9806 8.6928 14.5656 8.28791C14.1506 7.88302 13.4778 7.88302 13.0628 8.28791L9.5636 11.7019L8.1897 10.3615C7.7747 9.9566 7.10187 9.9566 6.68687 10.3615C6.27188 10.7664 6.27188 11.4228 6.68687 11.8277L8.81219 13.9013C9.22718 14.3062 9.90002 14.3062 10.315 13.9013L14.5656 9.75415Z" fill="#F8B940"/>
</svg>
