<svg xmlns="http://www.w3.org/2000/svg" version="1.1" xmlns:xlink="http://www.w3.org/1999/xlink" width="50" height="auto" x="0" y="0" viewBox="0 0 448 448" style="enable-background:new 0 0 512 512" xml:space="preserve" class=""><g><path d="M448 0H0v80h448zm-8 64a8 8 0 0 1-8 8H16a8 8 0 0 1-8-8V16a8 8 0 0 1 8-8h416a8 8 0 0 1 8 8zM416 96h32v352h-32zM0 96h32v352H0zm0 0" fill="#583bac" opacity="1" data-original="#ffffff" class=""></path><path d="M152 56h272V24H152zm248-24h16v16h-16zM24 56h112V24H24zm80-24h16v16h-16zm-32 0h16v16H72zm-32 0h16v16H40zM48 448h352V96H48zm320-40h-32v-16h32zm0-128H128v-16h240zM128 136h96v16h-96zm-48 0h32v16H80zm0 32h288v16H80zm0 32h288v16H80zm0 32h288v16H80zm0 32h32v16H80zm0 32h288v16H80zm0 32h288v16H80zm0 32h288v16H80zm0 32h240v16H80zm0 0" fill="#583bac" opacity="1" data-original="#ffffff" class=""></path></g></svg>